<?xml version="1.0" encoding="UTF-8"?>
<svg version="1.1" xmlns="http://www.w3.org/2000/svg" width="512" height="512">
<path d="M0 0 C1.01790619 0.00215515 2.03581238 0.0043103 3.08456421 0.00653076 C17.69363523 0.05620146 32.02575853 0.30709809 46.375 3.3125 C47.34985352 3.51117676 48.32470703 3.70985352 49.32910156 3.91455078 C97.7109774 14.03517194 141.69928269 35.9516877 177.375 70.3125 C178.3640332 71.26068604 178.3640332 71.26068604 179.37304688 72.22802734 C188.86130305 81.37247479 197.6012044 90.66984009 205.375 101.3125 C206.23306152 102.46355017 207.09113451 103.61459177 207.94921875 104.765625 C213.98677396 112.95525981 219.36957302 121.45788276 224.375 130.3125 C224.7771875 131.01971191 225.179375 131.72692383 225.59375 132.45556641 C238.6191741 155.59095836 247.36801461 180.76212409 252.6875 206.75 C252.83485596 207.46889404 252.98221191 208.18778809 253.1340332 208.9284668 C256.10789088 224.57475609 256.74800362 240.04818046 256.6875 255.9375 C256.68534485 256.95540619 256.6831897 257.97331238 256.68096924 259.02206421 C256.63129854 273.63113523 256.38040191 287.96325853 253.375 302.3125 C253.07698486 303.77478027 253.07698486 303.77478027 252.77294922 305.26660156 C242.65232806 353.6484774 220.7358123 397.63678269 186.375 433.3125 C185.74287598 433.97185547 185.11075195 434.63121094 184.45947266 435.31054688 C175.31502521 444.79880305 166.01765991 453.5387044 155.375 461.3125 C154.22394983 462.17056152 153.07290823 463.02863451 151.921875 463.88671875 C143.73224019 469.92427396 135.22961724 475.30707302 126.375 480.3125 C125.66778809 480.7146875 124.96057617 481.116875 124.23193359 481.53125 C101.09654164 494.5566741 75.92537591 503.30551461 49.9375 508.625 C49.21860596 508.77235596 48.49971191 508.91971191 47.7590332 509.0715332 C32.11274391 512.04539088 16.63931954 512.68550362 0.75 512.625 C-0.77685928 512.62176727 -0.77685928 512.62176727 -2.33456421 512.61846924 C-16.94363523 512.56879854 -31.27575853 512.31790191 -45.625 509.3125 C-47.08728027 509.01448486 -47.08728027 509.01448486 -48.57910156 508.71044922 C-96.9609774 498.58982806 -140.94928269 476.6733123 -176.625 442.3125 C-177.28435547 441.68037598 -177.94371094 441.04825195 -178.62304688 440.39697266 C-188.11130305 431.25252521 -196.8512044 421.95515991 -204.625 411.3125 C-205.48306152 410.16144983 -206.34113451 409.01040823 -207.19921875 407.859375 C-213.23677396 399.66974019 -218.61957302 391.16711724 -223.625 382.3125 C-224.0271875 381.60528809 -224.429375 380.89807617 -224.84375 380.16943359 C-237.8691741 357.03404164 -246.61801461 331.86287591 -251.9375 305.875 C-252.08485596 305.15610596 -252.23221191 304.43721191 -252.3840332 303.6965332 C-255.35789088 288.05024391 -255.99800362 272.57681954 -255.9375 256.6875 C-255.93534485 255.66959381 -255.9331897 254.65168762 -255.93096924 253.60293579 C-255.88129854 238.99386477 -255.63040191 224.66174147 -252.625 210.3125 C-252.42632324 209.33764648 -252.22764648 208.36279297 -252.02294922 207.35839844 C-241.90232806 158.9765226 -219.9858123 114.98821731 -185.625 79.3125 C-184.99287598 78.65314453 -184.36075195 77.99378906 -183.70947266 77.31445312 C-174.56502521 67.82619695 -165.26765991 59.0862956 -154.625 51.3125 C-153.47394983 50.45443848 -152.32290823 49.59636549 -151.171875 48.73828125 C-142.98224019 42.70072604 -134.47961724 37.31792698 -125.625 32.3125 C-124.91778809 31.9103125 -124.21057617 31.508125 -123.48193359 31.09375 C-100.34654164 18.0683259 -75.17537591 9.31948539 -49.1875 4 C-48.46860596 3.85264404 -47.74971191 3.70528809 -47.0090332 3.5534668 C-31.36274391 0.57960912 -15.88931954 -0.06050362 0 0 Z " fill="#58AFDF" transform="translate(255.625,-0.3125)"/>
<path d="M0 0 C3.07406304 1.42253481 5.61309322 3.1501239 8.3125 5.1875 C18.49293618 12.37369024 30.01127488 16.82651394 42 20 C42.79921875 20.21398437 43.5984375 20.42796875 44.421875 20.6484375 C55.43749873 23.34374969 66.8505614 23.23630332 78.125 23.25 C79.21867386 23.25250763 79.21867386 23.25250763 80.33444214 23.25506592 C91.16857838 23.25655394 101.45556224 22.68852331 112 20 C112.63695801 19.85038818 113.27391602 19.70077637 113.93017578 19.54663086 C127.29686377 16.36739564 141.15784467 11.18357108 151.5625 2 C152.366875 1.34 153.17125 0.68 154 0 C159.36797828 1.78932609 161.41824313 7.20922399 164 12 C168.82897291 22.28387295 171.32144412 32.80560216 173 44 C173.26018921 45.52294678 173.26018921 45.52294678 173.52563477 47.07666016 C174.10552497 51.87276696 174.14321912 56.56868079 174.1328125 61.39453125 C174.13376923 62.38192795 174.13472595 63.36932465 174.13571167 64.38664246 C174.13638975 66.46845565 174.13456147 68.55027099 174.13037109 70.63208008 C174.12503483 73.79187867 174.13031991 76.95153402 174.13671875 80.11132812 C174.13605757 82.14322948 174.13477558 84.17513074 174.1328125 86.20703125 C174.13483673 87.13965286 174.13686096 88.07227448 174.13894653 89.03315735 C174.1177223 95.07694345 173.71061528 100.99836517 173 107 C176.04311144 106.00293027 178.4837707 105.03540529 181 103 C182.70785365 99.38041398 183.33683666 95.67911811 184 91.75 C184.20238281 90.71875 184.40476562 89.6875 184.61328125 88.625 C185.10667897 86.08752599 185.56741705 83.54842249 186 81 C191.2807574 83.93763988 194.06597143 87.19791429 196 93 C197.28207426 109.17245101 194.39509583 124.03383569 184 137 C181.85580162 139.30602467 179.76890728 141.47032395 177 143 C175.68 143 174.36 143 173 143 C172.86464844 143.52464844 172.72929687 144.04929687 172.58984375 144.58984375 C169.06203012 157.28574788 163.5910427 169.19731145 157.5625 180.875 C156.91764648 182.13920776 156.91764648 182.13920776 156.25976562 183.42895508 C154.36047289 187.03163202 152.5974314 190.32003513 149.89697266 193.39355469 C142.86644954 201.45655409 142.99534785 208.54472366 143.19857788 218.74926758 C143.2877733 223.52061353 143.23429427 228.29080725 143.19140625 233.0625 C143.1850264 234.0467395 143.17864655 235.030979 143.17207336 236.04504395 C143.06312916 246.58057648 142.21588631 257.01911231 141.1875 267.5 C141.05572861 268.85416519 141.05572861 268.85416519 140.92129517 270.23568726 C139.53476351 284.27216695 137.70091673 298.20341663 135.44824219 312.12841797 C134.73470361 316.69957306 134.15619459 321.28705552 133.5625 325.875 C131.94169687 338.11579352 129.78068615 350.26175163 127.63183594 362.41894531 C126.82059687 367.01680258 126.02216635 371.61683632 125.22436523 376.21704102 C124.48528335 380.47844128 123.74264953 384.73922038 123 389 C107.29916883 393.14535863 91.51511148 393.36520563 75.375 393.3125 C74.36540222 393.31233887 73.35580444 393.31217773 72.31561279 393.31201172 C57.67198592 393.29573941 43.42107498 392.77201441 29 390 C29.99 389.67 30.98 389.34 32 389 C31.85632492 388.17553375 31.85632492 388.17553375 31.70974731 387.33441162 C30.70326972 381.55831918 29.69741103 375.7821192 28.69189453 370.00585938 C28.31770089 367.85674378 27.94335506 365.70765469 27.56884766 363.55859375 C22.14540584 332.43526896 17.44033008 301.37305552 14.20245361 269.94488525 C14.0227358 268.21841313 13.83586001 266.49268946 13.64794922 264.76708984 C12.50514401 254.19931112 11.96093323 243.72879744 11.90625 233.1015625 C11.88852623 231.11523203 11.87053842 229.12890389 11.85229492 227.14257812 C11.81727651 223.19464128 11.82981799 219.25055894 11.8684082 215.30273438 C11.8639865 204.5923825 11.25638004 198.28717382 4 190 C1.80537603 186.36157087 -0.12216059 182.59166057 -2.0625 178.8125 C-2.83956299 177.31227295 -2.83956299 177.31227295 -3.63232422 175.78173828 C-7.60177135 168.01401627 -10.99754122 160.18656027 -14 152 C-14.37898438 151.10539063 -14.75796875 150.21078125 -15.1484375 149.2890625 C-16 147 -16 147 -16 144 C-16.74378906 143.89558594 -17.48757812 143.79117188 -18.25390625 143.68359375 C-24.51667407 142.12458327 -28.8208005 136.69579871 -32.1875 131.4375 C-37.35816681 122.01697006 -40.43133662 113.35420626 -40.5 102.625 C-40.50942627 101.51995117 -40.50942627 101.51995117 -40.51904297 100.39257812 C-40.38231713 94.50407513 -39.2960948 88.74160573 -35.4296875 84.125 C-31.11111111 81 -31.11111111 81 -30 81 C-28.68 88.59 -27.36 96.18 -26 104 C-23.36 104.66 -20.72 105.32 -18 106 C-18.0721875 105.19304687 -18.144375 104.38609375 -18.21875 103.5546875 C-20.80552779 69.71101148 -21.63872693 32.71278226 -3 3 C-1.2578125 1.0859375 -1.2578125 1.0859375 0 0 Z " fill="#FEE7BD" transform="translate(181,119)"/>
<path d="M0 0 C0.05607422 1.71703125 0.05607422 1.71703125 0.11328125 3.46875 C0.713203 19.37651109 2.20783349 35.18738102 3.80145264 51.01977539 C3.99248658 52.92506446 4.18015028 54.83069054 4.36767578 56.73632812 C6.06474621 73.90778624 8.28118847 90.96016846 11 108 C11.14469727 108.90709717 11.28939453 109.81419434 11.43847656 110.7487793 C12.45863419 116.99915617 13.58194188 123.2285401 14.7265625 129.45703125 C15.03907393 131.16340937 15.35157378 132.8697896 15.6640625 134.57617188 C16.14603143 137.20753497 16.62983648 139.83849609 17.11914062 142.46850586 C17.5981509 145.04700289 18.06926887 147.62684122 18.5390625 150.20703125 C18.68590485 150.98633499 18.83274719 151.76563873 18.98403931 152.56855774 C19.80551533 157.12510423 20.14329563 161.36971191 20 166 C13.19961161 166.33035062 7.31849717 165.14101212 0.75 163.4375 C-0.30413086 163.16719971 -1.35826172 162.89689941 -2.44433594 162.6184082 C-51.6261795 149.68614536 -91.68076807 122.83193046 -127 87 C-125.54354025 82.92056412 -124.02752661 78.86580525 -122.5 74.8125 C-122.09007813 73.66201172 -121.68015625 72.51152344 -121.2578125 71.32617188 C-120.61972656 69.65844727 -120.61972656 69.65844727 -119.96875 67.95703125 C-119.59169922 66.93585205 -119.21464844 65.91467285 -118.82617188 64.86254883 C-114.93597832 58.76461842 -107.54094525 56.13820206 -101.1015625 53.3203125 C-100.36076447 52.99029739 -99.61996643 52.66028229 -98.85671997 52.32026672 C-96.44870792 51.24929382 -94.03700205 50.18695239 -91.625 49.125 C-89.94543389 48.38075021 -88.26607461 47.63603351 -86.58691406 46.89086914 C-83.12681992 45.35662173 -79.66510462 43.82611582 -76.20214844 42.29833984 C-71.94681887 40.42015766 -67.69624137 38.53153374 -63.44772339 36.63800049 C-60.29852205 35.2347229 -57.14783949 33.83479589 -53.99676514 32.43572998 C-52.50189666 31.77156509 -51.00746877 31.10640763 -49.51348877 30.44024658 C-47.44286647 29.51774272 -45.3701955 28.60001396 -43.296875 27.68359375 C-42.12479492 27.16337646 -40.95271484 26.64315918 -39.74511719 26.10717773 C-37 25 -37 25 -35 25 C-34.91258545 24.39567139 -34.8251709 23.79134277 -34.73510742 23.16870117 C-33.78934676 20.37853445 -32.73510306 19.81137422 -30.23828125 18.30078125 C-29.45501465 17.81770508 -28.67174805 17.33462891 -27.86474609 16.83691406 C-27.02250488 16.33385742 -26.18026367 15.83080078 -25.3125 15.3125 C-23.58164227 14.25193664 -21.85117711 13.19073236 -20.12109375 12.12890625 C-19.2585498 11.60441895 -18.39600586 11.07993164 -17.50732422 10.53955078 C-13.32121799 7.96919189 -9.21370548 5.27938902 -5.1027832 2.59106445 C-1.10623137 0 -1.10623137 0 0 0 Z " fill="#67707A" transform="translate(193,342)"/>
<path d="M0 0 C6.35866517 3.44308674 12.52285433 7.12218485 18.625 11 C19.43195313 11.50789063 20.23890625 12.01578125 21.0703125 12.5390625 C23.3918737 14.00888209 25.69919558 15.49793095 28 17 C28.70737305 17.45632813 29.41474609 17.91265625 30.14355469 18.3828125 C31.81915054 19.50830071 33.41886526 20.74526573 35 22 C35 22.99 35 23.98 35 25 C35.81770622 25.25537033 35.81770622 25.25537033 36.65193176 25.51589966 C42.29185538 27.32916943 47.63665391 29.51039169 53.01171875 31.9921875 C53.85068695 32.37403198 54.68965515 32.75587646 55.55404663 33.14929199 C60.15294456 35.24406493 64.74100766 37.36196869 69.32788086 39.48291016 C77.83717167 43.4014983 86.29844466 47.23276075 95.1171875 50.40625 C116.32644083 58.17199583 116.32644083 58.17199583 121.28491211 68.18798828 C126.04480417 80.05898365 126.04480417 80.05898365 124 85 C121.99731445 87.39086914 121.99731445 87.39086914 119.36328125 90.03515625 C118.89205841 90.51051819 118.42083557 90.98588013 117.93533325 91.47564697 C116.40331113 93.01384951 114.85919788 94.53906388 113.3125 96.0625 C112.78834503 96.58266693 112.26419006 97.10283386 111.72415161 97.63876343 C103.90937098 105.38348185 95.96303279 112.60255276 87 119 C85.85554596 119.84861102 84.71234599 120.69891553 83.5703125 121.55078125 C75.37771579 127.603145 66.86414286 132.98918828 58 138 C56.93918213 138.60328125 56.93918213 138.60328125 55.85693359 139.21875 C39.15914056 148.6197507 21.6746731 155.5087462 3.3125 160.9375 C2.35770752 161.22004639 1.40291504 161.50259277 0.41918945 161.79370117 C-6.32058002 163.70602939 -13.07246179 164.9741199 -20 166 C-19.49667727 157.23610532 -18.38734638 148.79460797 -16.6875 140.1875 C-16.23285587 137.80107016 -15.77975907 135.41434508 -15.328125 133.02734375 C-15.10318359 131.84382324 -14.87824219 130.66030273 -14.64648438 129.44091797 C-11.00541874 110.06131861 -8.38473935 90.56748032 -6 71 C-5.85675293 69.83049805 -5.71350586 68.66099609 -5.56591797 67.45605469 C-2.8357755 45.00248629 -0.82062662 22.60726252 0 0 Z " fill="#667079" transform="translate(324,342)"/>
<path d="M0 0 C0.92554688 0.76054688 1.85109375 1.52109375 2.8046875 2.3046875 C4.10019531 3.35269531 4.10019531 3.35269531 5.421875 4.421875 C26.91015905 22.6969577 37.55422773 49.67659407 39.8046875 77.3046875 C41.04206824 95.78156525 40.73604368 118.26622134 32.8046875 135.3046875 C30.01922233 137.1237668 28.15290475 138.3046875 24.8046875 138.3046875 C24.81134933 137.64530685 24.81801117 136.98592621 24.82487488 136.30656433 C24.89206217 129.34529579 24.93682787 122.38412161 24.96948242 115.42260742 C24.98442285 112.83630625 25.00478256 110.25002974 25.03100586 107.66381836 C25.2114626 89.38815088 25.26897286 71.16942229 18.9921875 53.7421875 C18.73791992 53.00605225 18.48365234 52.26991699 18.22167969 51.51147461 C16.11687032 45.65481027 13.38529383 40.40597303 9.8046875 35.3046875 C9.1446875 34.3146875 8.4846875 33.3246875 7.8046875 32.3046875 C4.69366926 33.74379798 2.10715669 35.503176 -0.6328125 37.5546875 C-6.46630275 41.68102399 -12.62162505 44.55030445 -19.1953125 47.3046875 C-20.07832031 47.68625 -20.96132813 48.0678125 -21.87109375 48.4609375 C-30.04195504 51.73424157 -38.54689987 52.95094794 -47.1953125 54.3046875 C-48.57203125 54.567052 -48.57203125 54.567052 -49.9765625 54.8347168 C-53.56264511 55.35832185 -56.98918191 55.43430917 -60.61328125 55.4375 C-61.66011833 55.43893509 -61.66011833 55.43893509 -62.72810364 55.44039917 C-64.19967743 55.44107652 -65.67125429 55.43925339 -67.14282227 55.43505859 C-69.35895772 55.4297447 -71.57488674 55.43499769 -73.79101562 55.44140625 C-85.02608457 55.44897902 -95.75039285 55.04620979 -106.6328125 52.0546875 C-107.45265625 51.83288818 -108.2725 51.61108887 -109.1171875 51.38256836 C-122.69055821 47.60046083 -135.80665997 42.00076319 -146.1953125 32.3046875 C-151.8303438 34.19976484 -153.76177209 40.04260351 -156.234375 45.00390625 C-169.51099286 73.28527043 -167.68851238 107.94107464 -165.1953125 138.3046875 C-171.46242213 137.26016923 -171.46242213 137.26016923 -174.1953125 135.3046875 C-175.59638076 131.77585583 -176.14716966 128.05570022 -176.82324219 124.32519531 C-177.20036846 122.27723138 -177.62305099 120.24188112 -178.046875 118.203125 C-179.94515195 108.44663608 -180.47953209 98.86400531 -180.5078125 88.9296875 C-180.51321045 87.77782959 -180.5186084 86.62597168 -180.52416992 85.43920898 C-180.45934244 77.57028035 -179.61066163 70.04105778 -178.1953125 62.3046875 C-178.06535889 61.57427246 -177.93540527 60.84385742 -177.80151367 60.09130859 C-172.87327643 34.25063957 -157.47571376 11.42039384 -135.95654297 -3.52050781 C-126.01907875 -10.14915736 -115.68839877 -15.33750427 -104.1953125 -18.6953125 C-103.57092285 -18.88996094 -102.9465332 -19.08460937 -102.30322266 -19.28515625 C-68.66255456 -29.5254392 -27.58496269 -21.7313897 0 0 Z " fill="#46454A" transform="translate(329.1953125,87.6953125)"/>
<path d="M0 0 C5.52217456 4.06291369 10.85990013 8.29807067 16.125 12.6875 C21.4429528 17.09758066 26.79475675 21.44839378 32.25 25.6875 C37.33175797 29.63829437 42.2617379 33.73283974 47.14819336 37.921875 C52.92322327 42.8426947 58.94490519 47.43142601 65 52 C63.6561787 55.02637272 62.2013226 57.00549983 59.76953125 59.2421875 C58.81143555 60.12970703 58.81143555 60.12970703 57.83398438 61.03515625 C57.16689453 61.64230469 56.49980469 62.24945313 55.8125 62.875 C54.84086914 63.77412109 54.84086914 63.77412109 53.84960938 64.69140625 C49.6485668 68.56089802 45.35544241 72.30550021 41 76 C41.639375 76.639375 42.27875 77.27875 42.9375 77.9375 C43.38351563 78.39511719 43.82953125 78.85273438 44.2890625 79.32421875 C45.59409501 80.60243552 46.95404878 81.82482144 48.3359375 83.01953125 C49.15320313 83.75558594 49.97046875 84.49164063 50.8125 85.25 C51.60269531 85.93578125 52.39289063 86.6215625 53.20703125 87.328125 C57.41242882 93.59499196 54.55601912 104.37142146 53.7578125 111.55859375 C53.62937958 112.74292496 53.50094666 113.92725616 53.36862183 115.1474762 C53.09691612 117.64130172 52.82279389 120.13486502 52.54638672 122.62817383 C52.12679101 126.42130934 51.71715801 130.21542787 51.30859375 134.00976562 C51.04226425 136.44277382 50.77535629 138.87571878 50.5078125 141.30859375 C50.3868924 142.43180527 50.26597229 143.55501678 50.14138794 144.71226501 C49.41203467 151.22523112 48.41324673 157.59955932 47 164 C36.88873728 163.50100262 27.00494828 162.61017136 17 161 C17.99 160.67 18.98 160.34 20 160 C19.85632492 159.17553375 19.85632492 159.17553375 19.70974731 158.33441162 C18.70326972 152.55831918 17.69741103 146.7821192 16.69189453 141.00585938 C16.31770089 138.85674378 15.94335506 136.70765469 15.56884766 134.55859375 C-1.11901482 38.79251364 -1.11901482 38.79251364 0 0 Z " fill="#FEFDFD" transform="translate(193,348)"/>
<path d="M0 0 C0.05607422 1.71703125 0.05607422 1.71703125 0.11328125 3.46875 C0.713203 19.37651109 2.20783349 35.18738102 3.80145264 51.01977539 C3.99248658 52.92506446 4.18015028 54.83069054 4.36767578 56.73632812 C6.06474621 73.90778624 8.28118847 90.96016846 11 108 C11.2170459 109.36064575 11.2170459 109.36064575 11.43847656 110.7487793 C12.45863419 116.99915617 13.58194188 123.2285401 14.7265625 129.45703125 C15.03907393 131.16340937 15.35157378 132.8697896 15.6640625 134.57617188 C16.14603143 137.20753497 16.62983648 139.83849609 17.11914062 142.46850586 C17.5981509 145.04700289 18.06926887 147.62684122 18.5390625 150.20703125 C18.68590485 150.98633499 18.83274719 151.76563873 18.98403931 152.56855774 C19.80551533 157.12510423 20.14329563 161.36971191 20 166 C9.75999491 166.39384635 -5.67506485 165.59577232 -13.67724609 158.51611328 C-16.30979602 154.88453351 -17.58782132 150.71246695 -19.02099609 146.50146484 C-20.97029324 141.52079188 -23.81380533 136.98640743 -26.5 132.375 C-27.61805314 130.40934628 -28.73525912 128.44321044 -29.8515625 126.4765625 C-31.75919468 123.14367466 -33.68692902 119.82488161 -35.6484375 116.5234375 C-36.22174805 115.55011475 -36.22174805 115.55011475 -36.80664062 114.55712891 C-37.79710475 112.88175974 -38.80036303 111.2139723 -39.8046875 109.546875 C-41 107 -41 107 -40 104 C-38.59570312 102.74829102 -38.59570312 102.74829102 -36.78125 101.50390625 C-36.10376709 101.03307617 -35.42628418 100.56224609 -34.72827148 100.07714844 C-33.6252771 99.32739746 -33.6252771 99.32739746 -32.5 98.5625 C-30.95947461 97.49632606 -29.41911515 96.42991235 -27.87890625 95.36328125 C-27.07984863 94.81365723 -26.28079102 94.2640332 -25.45751953 93.69775391 C-21.4280846 90.91405725 -17.43470715 88.0796691 -13.4375 85.25 C-10.983125 83.5175 -8.52875 81.785 -6 80 C-24.315 79.505 -24.315 79.505 -43 79 C-40.83916084 59.55244755 -40.83916084 59.55244755 -39.5 51.98828125 C-38.91650672 48.5009972 -38.45472406 45.00634882 -38 41.5 C-37.81824219 40.23800781 -37.63648438 38.97601563 -37.44921875 37.67578125 C-36.94200147 34.0761906 -36.94200147 34.0761906 -36.95703125 30.73046875 C-36.79649727 27.35057765 -36.44280925 25.07248837 -35 22 C-31.11666005 18.4691979 -26.88463473 15.94063401 -22.33544922 13.35644531 C-18.88903277 11.35474243 -15.55514372 9.18571693 -12.20288086 7.03125 C-9.71745576 5.43440145 -7.22653577 3.84740845 -4.7265625 2.2734375 C-4.03127441 1.83435059 -3.33598633 1.39526367 -2.61962891 0.94287109 C-1 0 -1 0 0 0 Z " fill="#444A56" transform="translate(193,342)"/>
<path d="M0 0 C0.28975926 12.01811013 -0.59357187 23.79499987 -1.75 35.75 C-1.88388626 37.16664444 -1.88388626 37.16664444 -2.02047729 38.61190796 C-3.40456213 53.20372049 -5.21065214 67.6567759 -7.55175781 82.12841797 C-8.26529639 86.69957306 -8.84380541 91.28705552 -9.4375 95.875 C-11.05830313 108.11579352 -13.21931385 120.26175163 -15.36816406 132.41894531 C-16.17940313 137.01680258 -16.97783365 141.61683632 -17.77563477 146.21704102 C-18.51471662 150.47844114 -19.2572184 154.73924346 -20 159 C-25.99767886 160.65213839 -31.81373911 161.5447669 -38 162.125 C-39.60550846 162.28067825 -41.21097452 162.43679416 -42.81640625 162.59326172 C-44.00085327 162.70841629 -44.00085327 162.70841629 -45.20922852 162.82589722 C-45.80018311 162.88335114 -46.3911377 162.94080505 -47 163 C-49.15344153 148.75977127 -50.90162845 134.51006413 -52.36254883 120.18261719 C-52.69294066 116.94671341 -53.03063816 113.71162696 -53.36914062 110.4765625 C-53.58375459 108.40108518 -53.79796307 106.32556589 -54.01171875 104.25 C-54.11167648 103.29174316 -54.21163422 102.33348633 -54.31462097 101.34619141 C-54.40504166 100.45335449 -54.49546234 99.56051758 -54.58862305 98.640625 C-54.6683989 97.86235352 -54.74817474 97.08408203 -54.83036804 96.28222656 C-55.1888938 91.45862476 -55.1888938 91.45862476 -55 89 C-53.10349089 86.90060852 -51.33282026 85.17637618 -49.1875 83.375 C-48.09735993 82.42481902 -47.00750762 81.47430779 -45.91796875 80.5234375 C-44.95503906 79.69070313 -43.99210937 78.85796875 -43 78 C-41.98645316 77.01373289 -40.97745857 76.0220444 -40 75 C-51.47017547 63.84355631 -51.47017547 63.84355631 -64 54 C-63.43876747 50.45560072 -62.34961251 49.08116688 -59.5703125 46.86328125 C-58.86237549 46.2902124 -58.15443848 45.71714355 -57.42504883 45.12670898 C-56.66603271 44.52802002 -55.9070166 43.92933105 -55.125 43.3125 C-54.35502686 42.6925415 -53.58505371 42.07258301 -52.79174805 41.43383789 C-51.24649444 40.19010506 -49.69827067 38.95005267 -48.14697266 37.71386719 C-45.34814501 35.47964271 -42.57960068 33.21088562 -39.8125 30.9375 C-38.54019531 29.90109375 -38.54019531 29.90109375 -37.2421875 28.84375 C-35.28381383 27.23338002 -33.3585015 25.59195105 -31.4375 23.9375 C-29 22 -29 22 -27 22 C-27 21.34 -27 20.68 -27 20 C-25.63671875 18.80859375 -25.63671875 18.80859375 -23.6875 17.4375 C-17.01130382 12.59933296 -10.68498036 7.31430461 -4.4375 1.9375 C-2 0 -2 0 0 0 Z " fill="#FEFDFD" transform="translate(324,349)"/>
<path d="M0 0 C6.35866517 3.44308674 12.52285433 7.12218485 18.625 11 C19.43195313 11.50789063 20.23890625 12.01578125 21.0703125 12.5390625 C22.65299262 13.541084 24.22763599 14.55593368 25.79321289 15.58447266 C27.9459106 17.00592211 27.9459106 17.00592211 30.07983398 18.11474609 C33.01948282 19.81718686 34.65273908 21.00028347 35.79003906 24.27441406 C36.29648001 27.06241791 36.58793705 29.80050761 36.8125 32.625 C37.02586743 34.62515804 37.24069073 36.62516135 37.45703125 38.625 C37.5804187 39.96691406 37.5804187 39.96691406 37.70629883 41.3359375 C38.10276421 44.9321389 38.7741919 48.45768695 39.4609375 52.0078125 C40.26879625 56.49201399 40.94474595 60.99490631 41.625 65.5 C41.82802734 66.8295874 41.82802734 66.8295874 42.03515625 68.18603516 C42.16019531 69.02183105 42.28523438 69.85762695 42.4140625 70.71875 C42.5270166 71.47091797 42.6399707 72.22308594 42.75634766 72.99804688 C43 75 43 75 43 78 C30.46 78.33 17.92 78.66 5 79 C7.26875 80.546875 9.5375 82.09375 11.875 83.6875 C19.08259327 88.6207275 26.17878258 93.69785976 33.23388672 98.84643555 C33.95850098 99.37406494 34.68311523 99.90169434 35.4296875 100.4453125 C36.07147949 100.91469238 36.71327148 101.38407227 37.37451172 101.86767578 C39.01048617 103.0653644 39.01048617 103.0653644 41 104 C39.36770145 110.04555018 36.23765769 115.1245755 33.125 120.5 C31.95438231 122.54610503 30.78514803 124.59300205 29.6171875 126.640625 C28.7214502 128.20973633 28.7214502 128.20973633 27.80761719 129.81054688 C24.90602225 134.93027085 22.071106 140.08559073 19.25 145.25 C18.48067139 146.65088867 18.48067139 146.65088867 17.69580078 148.08007812 C17.22384277 148.94568359 16.75188477 149.81128906 16.265625 150.703125 C15.64349121 151.84249512 15.64349121 151.84249512 15.00878906 153.00488281 C13.88001139 155.11685284 13.88001139 155.11685284 13 158 C10.71850586 158.96728516 10.71850586 158.96728516 7.71484375 159.7890625 C6.08192383 160.24152344 6.08192383 160.24152344 4.41601562 160.703125 C3.26810547 161.00734375 2.12019531 161.3115625 0.9375 161.625 C-0.74375977 162.09292969 -0.74375977 162.09292969 -2.45898438 162.5703125 C-8.30830372 164.16402018 -13.960049 165.45292977 -20 166 C-19.49667727 157.23610532 -18.38734638 148.79460797 -16.6875 140.1875 C-16.23285587 137.80107016 -15.77975907 135.41434508 -15.328125 133.02734375 C-15.10318359 131.84382324 -14.87824219 130.66030273 -14.64648438 129.44091797 C-11.00541874 110.06131861 -8.38473935 90.56748032 -6 71 C-5.85675293 69.83049805 -5.71350586 68.66099609 -5.56591797 67.45605469 C-2.8357755 45.00248629 -0.82062662 22.60726252 0 0 Z " fill="#434A56" transform="translate(324,342)"/>
<path d="M0 0 C2.62004658 1.02930402 3.8437318 1.99523033 5.71875 4.0703125 C9.39992443 7.97458841 13.34096638 11.44870749 17.40625 14.9453125 C18.90736215 16.25654038 20.40739686 17.56900296 21.90625 18.8828125 C22.5765625 19.46933594 23.246875 20.05585938 23.9375 20.66015625 C24.4221875 21.08425781 24.906875 21.50835937 25.40625 21.9453125 C24.26236961 23.08919289 23.11816726 24.23275255 21.97265625 25.375 C20.85033974 26.5001153 19.73380048 27.63100501 18.62109375 28.765625 C17.71037109 29.68988281 17.71037109 29.68988281 16.78125 30.6328125 C16.21148437 31.21417969 15.64171875 31.79554688 15.0546875 32.39453125 C13.40625 33.9453125 13.40625 33.9453125 10.40625 35.9453125 C11.61605791 54.07437429 13.60299971 72.08360538 15.72924805 90.12402344 C15.83918594 91.06451538 15.94912384 92.00500732 16.06239319 92.97399902 C16.27063106 94.75271281 16.48137785 96.53113531 16.6950531 98.3092041 C16.78875687 99.10983276 16.88246063 99.91046143 16.97900391 100.73535156 C17.06179596 101.43049866 17.14458801 102.12564575 17.22988892 102.84185791 C17.42778201 105.20212426 17.40625 107.57676465 17.40625 109.9453125 C5.19625 109.9453125 -7.01375 109.9453125 -19.59375 109.9453125 C-18.53057042 99.74077577 -17.44426735 89.54002412 -16.3046875 79.34375 C-15.97172847 76.3468731 -15.63914642 73.34995456 -15.30664062 70.35302734 C-15.07936596 68.31313866 -14.85049716 66.27342703 -14.62011719 64.23388672 C-14.28123951 61.22933042 -13.94866081 58.22413104 -13.6171875 55.21875 C-13.46254532 53.86854263 -13.46254532 53.86854263 -13.30477905 52.49105835 C-11.73254646 42.64379304 -11.73254646 42.64379304 -14.1328125 33.4921875 C-14.82117188 32.89921875 -15.50953125 32.30625 -16.21875 31.6953125 C-16.94320312 31.05078125 -17.66765625 30.40625 -18.4140625 29.7421875 C-19.13335937 29.14921875 -19.85265625 28.55625 -20.59375 27.9453125 C-21.20992187 27.41421875 -21.82609375 26.883125 -22.4609375 26.3359375 C-23.81751473 25.18057507 -25.20232063 24.05845599 -26.59375 22.9453125 C-22.94436095 18.47481092 -19.22433055 14.57164509 -14.80859375 10.859375 C-13.1728919 9.4458055 -11.58853062 7.97232153 -10.03515625 6.46875 C-8.73384766 5.21964844 -8.73384766 5.21964844 -7.40625 3.9453125 C-6.60832031 3.1615625 -5.81039062 2.3778125 -4.98828125 1.5703125 C-2.59375 -0.0546875 -2.59375 -0.0546875 0 0 Z " fill="#E85940" transform="translate(259.59375,402.0546875)"/>
<path d="M0 0 C3.65415742 1.56363945 6.2119688 3.82175042 9.125 6.5 C9.99382812 7.2940625 10.86265625 8.088125 11.7578125 8.90625 C15.99265107 12.86073341 15.99265107 12.86073341 16.20263672 16.84008789 C16.06642048 22.77806569 15.41299098 28.6592683 14.7578125 34.55859375 C14.62937958 35.74292496 14.50094666 36.92725616 14.36862183 38.1474762 C14.09691612 40.64130172 13.82279389 43.13486502 13.54638672 45.62817383 C13.12679101 49.42130934 12.71715801 53.21542787 12.30859375 57.00976562 C12.04226425 59.44277382 11.77535629 61.87571878 11.5078125 64.30859375 C11.32643234 65.99341103 11.32643234 65.99341103 11.14138794 67.71226501 C10.41203467 74.22523112 9.41324673 80.59955932 8 87 C-2.11126272 86.50100262 -11.99505172 85.61017136 -22 84 C-20.515 83.505 -20.515 83.505 -19 83 C-19.098004 82.45035583 -19.196008 81.90071167 -19.29698181 81.33441162 C-20.32557802 75.55937916 -21.34644272 69.78301634 -22.36303711 64.00585938 C-22.74228222 61.85642768 -23.1234289 59.70733051 -23.5065918 57.55859375 C-24.06031256 54.4514045 -24.60694546 51.34303456 -25.15234375 48.234375 C-25.3221727 47.29011658 -25.49200165 46.34585815 -25.66697693 45.37298584 C-26.52388877 40.44826956 -27.24495622 35.51565799 -27.796875 30.54711914 C-27.90668701 29.58101212 -28.01649902 28.61490509 -28.12963867 27.61952209 C-27.97416113 24.4778912 -27.18059043 23.3155313 -25.09765625 21.01171875 C-23.78419795 19.86637252 -22.43710113 18.75869673 -21.0625 17.6875 C-20.37043457 17.0992041 -19.67836914 16.5109082 -18.96533203 15.90478516 C-17.60484797 14.75267215 -16.23177724 13.61522071 -14.84521484 12.49462891 C-12.62152202 10.69343183 -10.49826068 8.79291632 -8.375 6.875 C-5.63744318 4.51400667 -2.84912744 2.22588082 0 0 Z " fill="#E5E4E5" transform="translate(232,425)"/>
<path d="M0 0 C3.03726958 1.36610268 5.20915026 2.93073807 7.609375 5.23046875 C8.28226562 5.86919922 8.95515625 6.50792969 9.6484375 7.16601562 C10.68871094 8.16665039 10.68871094 8.16665039 11.75 9.1875 C16.55996988 13.78257579 21.4096483 18.29430195 26.44238281 22.64575195 C27.31682266 23.40602121 28.18065441 24.18065441 29 25 C29.10860456 35.64324686 26.44780122 46.429289 24.56591797 56.84667969 C23.60405233 62.20623816 22.67899512 67.5721649 21.75 72.9375 C21.41162263 74.88414315 21.07309652 76.83076045 20.734375 78.77734375 C20.59225586 79.59452881 20.45013672 80.41171387 20.30371094 81.25366211 C20.20348633 81.82995361 20.10326172 82.40624512 20 83 C14.00232114 84.65213839 8.18626089 85.5447669 2 86.125 C0.39449154 86.28067825 -1.21097452 86.43679416 -2.81640625 86.59326172 C-3.6060376 86.67003143 -4.39566895 86.74680115 -5.20922852 86.82589722 C-6.0956604 86.91207809 -6.0956604 86.91207809 -7 87 C-9.15344153 72.75977127 -10.90162845 58.51006413 -12.36254883 44.18261719 C-12.69294066 40.94671341 -13.03063816 37.71162696 -13.36914062 34.4765625 C-13.58375459 32.40108518 -13.79796307 30.32556589 -14.01171875 28.25 C-14.11167648 27.29174316 -14.21163422 26.33348633 -14.31462097 25.34619141 C-14.40504166 24.45335449 -14.49546234 23.56051758 -14.58862305 22.640625 C-14.6683989 21.86235352 -14.74817474 21.08408203 -14.83036804 20.28222656 C-15.18880824 15.45977588 -15.18880824 15.45977588 -15 13 C-13.10413472 10.87486729 -11.33776981 9.13539309 -9.1875 7.3125 C-8.36668945 6.58450195 -8.36668945 6.58450195 -7.52929688 5.84179688 C-5.10514182 3.7114788 -2.68784465 1.79189643 0 0 Z " fill="#E5E4E4" transform="translate(284,425)"/>
<path d="M0 0 C0.33 0 0.66 0 1 0 C1.29249758 4.16516547 1.4686497 8.3276806 1.625 12.5 C1.70878906 13.67304688 1.79257812 14.84609375 1.87890625 16.0546875 C2.12079554 24.66594638 2.12079554 24.66594638 -1.06835938 28.46191406 C-3.62341645 30.50194654 -6.22993716 32.26679988 -9 34 C-10.07476501 34.84810576 -11.13607921 35.71409276 -12.171875 36.609375 C-13.02265625 37.31578125 -13.8734375 38.0221875 -14.75 38.75 C-15.61109375 39.46671875 -16.4721875 40.1834375 -17.359375 40.921875 C-22.46785486 44.94215796 -27.225696 47.7039538 -33.4375 49.625 C-34.06720703 49.82867187 -34.69691406 50.03234375 -35.34570312 50.2421875 C-37.2251851 50.84485798 -39.11260542 51.42258688 -41 52 C-42.08152344 52.37253906 -43.16304688 52.74507813 -44.27734375 53.12890625 C-62.60112785 57.41663327 -82.09902155 53.54797429 -98 44 C-111.3658447 34.56428961 -123.48450579 20.10644785 -128 4 C-127.67 3.01 -127.34 2.02 -127 1 C-125.58155991 2.56089026 -124.16532975 4.1237889 -122.75 5.6875 C-121.96109375 6.55761719 -121.1721875 7.42773438 -120.359375 8.32421875 C-118.85807612 10.02685076 -117.40107319 11.77038429 -116.0078125 13.5625 C-106.16663173 25.50977004 -88.45456043 36.02092679 -73 38 C-49.18209423 39.28109482 -31.82170722 30.90883858 -13.83984375 15.66796875 C-9.39078933 11.4881831 -5.73475753 6.82336399 -2 2 C-1.34 1.34 -0.68 0.68 0 0 Z " fill="#DEC492" transform="translate(323,323)"/>
<path d="M0 0 C2.87554801 2.66220859 3.26254523 4.15662261 4 8 C12.10360716 26.63223392 23.13445055 42.51353227 42.53515625 50.4453125 C59.80283859 56.80040064 78.1720906 57.32576422 95.6015625 51.19140625 C98.42455513 50.20173642 101.05818904 49.49030183 104 49 C100.43060367 52.71562858 96.65935765 55.93522043 92.5625 59.0625 C87.39217405 63.06656099 82.33816961 67.17912024 77.375 71.4375 C76.79564697 71.9332251 76.21629395 72.4289502 75.61938477 72.93969727 C73.2296528 75.00226145 70.92345542 77.07904346 68.7265625 79.34765625 C67 81 67 81 65 81 C63.30651382 79.36059153 61.64371472 77.68930681 60 76 C58.41661391 74.64205414 56.81134061 73.3093014 55.1875 72 C54.2284375 71.22398437 53.269375 70.44796875 52.28125 69.6484375 C51.49621094 69.01566895 51.49621094 69.01566895 50.6953125 68.37011719 C48.86483906 66.89076567 47.04130559 65.40315656 45.21875 63.9140625 C38.87824083 58.73802567 32.51707529 53.59578173 26.0625 48.5625 C20.55850587 44.26754056 15.1403864 39.87413715 9.75 35.4375 C9.01015869 34.82914307 8.27031738 34.22078613 7.50805664 33.59399414 C2.25895445 29.25895445 2.25895445 29.25895445 0 27 C-0.22705078 24.29443359 -0.22705078 24.29443359 -0.1953125 20.8984375 C-0.18886719 19.68671875 -0.18242187 18.475 -0.17578125 17.2265625 C-0.15902344 15.95554687 -0.14226562 14.68453125 -0.125 13.375 C-0.11146484 11.456875 -0.11146484 11.456875 -0.09765625 9.5 C-0.07402303 6.33314833 -0.04107629 3.16666576 0 0 Z " fill="#F8DCA4" transform="translate(193,321)"/>
<path d="M0 0 C5.2807574 2.93763988 8.06597143 6.19791429 10 12 C11.28207426 28.17245101 8.39509583 43.03383569 -2 56 C-4.14419838 58.30602467 -6.23109272 60.47032395 -9 62 C-10.32 62 -11.64 62 -13 62 C-12.75765625 61.06542969 -12.5153125 60.13085938 -12.265625 59.16796875 C-10.26305698 51.3531183 -8.41448755 43.51923249 -6.75 35.625 C-6.48751465 34.38592896 -6.48751465 34.38592896 -6.21972656 33.12182617 C-5.32719669 29.09533109 -5.32719669 29.09533109 -5 25 C-5.66 24.34 -6.32 23.68 -7 23 C-6.34 22.67 -5.68 22.34 -5 22 C-4.24819331 19.78099288 -4.24819331 19.78099288 -3.7109375 17.08984375 C-3.38222656 15.60581055 -3.38222656 15.60581055 -3.046875 14.09179688 C-2.82515625 13.05087891 -2.6034375 12.00996094 -2.375 10.9375 C-2.14554687 9.89271484 -1.91609375 8.84792969 -1.6796875 7.77148438 C-1.11224664 5.18253544 -0.55272525 2.59212352 0 0 Z " fill="#F6DAA4" transform="translate(367,200)"/>
<path d="M0 0 C0.12528076 0.73299316 0.25056152 1.46598633 0.37963867 2.22119141 C2.56429689 14.92490465 4.77792708 27.61283623 7.625 40.1875 C7.81860107 41.05133301 8.01220215 41.91516602 8.21166992 42.80517578 C9.3432016 47.68057018 10.72750085 52.37458466 12.42724609 57.08325195 C13 59 13 59 13 62 C8.96220026 61.90151708 6.50811547 60.96488678 3.5625 58.3125 C-1.33698896 53.04364823 -4.10983268 46.49727537 -7 40 C-7.36480469 39.24976563 -7.72960937 38.49953125 -8.10546875 37.7265625 C-10.25875014 32.61125554 -10.30022971 27.41179261 -10.375 21.9375 C-10.38909912 21.18114258 -10.40319824 20.42478516 -10.41772461 19.64550781 C-10.36587103 13.6147393 -9.42990056 7.9013738 -5.4296875 3.125 C-1.11111111 0 -1.11111111 0 0 0 Z " fill="#F6DAA4" transform="translate(151,200)"/>
</svg>
